HIERARCHY
ROOT hip
{
	OFFSET	0.00  0.00  0.00 
	CHANNELS 6 Xposition Yposition Zposition Xrotation Zrotation Yrotation
	JOINT abdomen
	{
		OFFSET	0.000000 0.000000 0.000000
		CHANNELS 3 Xrotation Zrotation Yrotation
		JOINT chest
		{
			OFFSET	0.000000 5.018152 -1.882228
			CHANNELS 3 Xrotation Zrotation Yrotation
			JOINT neckDummy
			{
				OFFSET	0.000000 8.316447 0.784897
				CHANNELS 3 Xrotation Yrotation Zrotation
				JOINT neck
				{
					OFFSET	0.000000 2.280413 -0.392801
					CHANNELS 3 Xrotation Zrotation Yrotation
					JOINT head
					{
						OFFSET	0.000000 3.496879 0.529469
						CHANNELS 3 Xrotation Zrotation Yrotation
						JOINT figureHair
						{
							OFFSET	0.000000 4.699570 0.720622
							CHANNELS 3 Zrotation Yrotation Xrotation
							End Site
							{
								OFFSET 0.000000 -6.419331 0.000000
							}
						}
					}
				}
			}
			JOINT lCollar
			{
				OFFSET	0.599237 8.316447 0.784897
				CHANNELS 3 Yrotation Zrotation Xrotation
				JOINT lShldr
				{
					OFFSET	6.421198 0.010146 -0.332128
					CHANNELS 3 Zrotation Yrotation Xrotation
					JOINT lForeArm
					{
						OFFSET	10.552783 0.025574 0.125508
						CHANNELS 3 Yrotation Zrotation Xrotation
						JOINT lHand
						{
							OFFSET	11.035963 0.319619 0.041520
							CHANNELS 3 Zrotation Yrotation Xrotation
							End Site
							{
								OFFSET 10.353753 0.000000 0.000000
							}
						}
					}
				}
			}
			JOINT rCollar
			{
				OFFSET	-0.599237 8.316447 0.784897
				CHANNELS 3 Yrotation Zrotation Xrotation
				JOINT rShldr
				{
					OFFSET	-6.421198 0.010146 -0.332128
					CHANNELS 3 Zrotation Yrotation Xrotation
					JOINT rForeArm
					{
						OFFSET	-10.552783 0.025574 0.125508
						CHANNELS 3 Yrotation Zrotation Xrotation
						JOINT rHand
						{
							OFFSET	-11.035963 0.319619 0.041520
							CHANNELS 3 Zrotation Yrotation Xrotation
							End Site
							{
								OFFSET -10.353753 0.000000 0.000000
							}
						}
					}
				}
			}
		}
	}
	JOINT lThigh
	{
		OFFSET	4.500466 -6.400484 -1.832696
		CHANNELS 3 Xrotation Zrotation Yrotation
		JOINT lShin
		{
			OFFSET	-1.359117 -18.918689 1.179887
			CHANNELS 3 Xrotation Zrotation Yrotation
			JOINT lFoot
			{
				OFFSET	-0.652380 -17.215186 -0.312137
				CHANNELS 3 Xrotation Yrotation Zrotation
				End Site
				{
					OFFSET 0.000000 0.000000 10.353752
				}
			}
		}
	}
	JOINT rThigh
	{
		OFFSET	-4.500466 -6.400484 -1.832696
		CHANNELS 3 Xrotation Zrotation Yrotation
		JOINT rShin
		{
			OFFSET	1.359117 -18.918689 1.179887
			CHANNELS 3 Xrotation Zrotation Yrotation
			JOINT rFoot
			{
				OFFSET	0.652380 -17.215186 -0.312137
				CHANNELS 3 Xrotation Yrotation Zrotation
				End Site
				{
					OFFSET 0.000000 0.000000 10.353752
				}
			}
		}
	}
}
MOTION
Frames:     15
Frame Time: 0.041667
0.000000 42.014908 0.240040 0.000000 0.000000 0.000000 0.000000 0.000000 0.000000 0.000000 0.000000 0.000000 0.000000 0.000000 0.000000 -5.690300 0.000000 -0.063400 0.000000 0.000000 0.000000 0.000000 0.000000 0.000000 2.021920 -5.690310 -0.063351 -70.104897 9.959680 15.983900 -22.552299 -9.319900 0.134635 5.975360 -0.119941 0.169518 -2.021920 5.690310 -0.063351 70.100700 -9.978770 15.991600 22.515600 9.303740 0.147736 -5.969490 0.173112 0.175734 -7.544930 3.982110 0.126592 15.856000 -3.300730 -0.855127 -8.588080 1.056590 -0.877759 -7.531940 -4.331990 0.100592 15.780100 3.271440 0.612621 -8.616930 -1.581440 0.945399 
-0.171224 42.190575 -0.323434 0.000000 0.000000 6.206897 -0.012770 0.023441 -0.043279 0.082636 0.142765 -0.251586 0.000000 0.000000 0.000000 -5.495965 0.306900 1.370345 0.185799 -0.046008 2.322236 0.000000 0.000000 0.000000 2.540584 -6.130136 0.287093 -70.192009 4.176395 14.996819 -20.488363 -11.074762 0.318814 6.959380 0.665079 -0.086264 -1.737010 5.157667 -0.088512 70.111359 -10.283220 15.939443 21.985920 9.826907 0.162256 -6.238901 -0.252532 0.179257 -10.835843 4.658295 0.018055 21.111252 -3.384750 -1.371121 -4.133533 -1.123787 -1.236226 -6.069827 -3.523129 0.162672 11.800673 3.048218 0.250592 -6.149508 -6.174205 0.862394 
-0.342447 42.366241 -0.886909 0.000000 0.000000 12.413794 -0.019014 0.054540 -0.091154 0.193743 0.325167 -0.554168 0.000000 0.000000 0.000000 -5.277884 0.662735 3.071321 0.405457 -0.081573 5.089452 0.000000 0.000000 0.000000 3.203558 -6.693442 0.707869 -70.287872 -2.955301 13.795781 -17.932798 -13.230607 0.548990 8.163072 1.656143 -0.396689 -1.422628 4.522522 -0.114471 70.127724 -10.681264 15.881411 21.370090 10.560216 0.179129 -6.573387 -0.768070 0.187473 -14.913256 5.487172 -0.123867 27.502584 -3.479731 -1.996029 1.283353 -4.128794 -1.665205 -4.266323 -2.515907 0.240079 6.859138 2.771157 -0.199627 -3.682085 -10.766970 0.779388 
-0.513671 42.541908 -1.450383 0.000000 0.000000 18.620689 -0.059683 0.076047 -0.156686 0.265566 0.475097 -0.869411 0.000000 0.000000 0.000000 -5.056716 1.032295 4.866295 0.636702 -0.105440 8.018312 0.000000 0.000000 0.000000 3.744942 -7.149360 1.151809 -70.423355 -9.741615 12.590947 -15.540828 -15.313340 0.756327 9.345499 2.511165 -0.711171 -1.092848 3.852553 -0.141559 70.145264 -11.103674 15.820498 20.721626 11.341672 0.196897 -6.927174 -1.312455 0.196430 -18.715221 6.292878 -0.228769 33.903786 -3.601891 -2.631783 6.711030 -5.812557 -2.121052 -2.556326 -1.595536 0.310438 2.293932 2.514726 -0.613164 -1.214663 -15.359735 0.696383 
-0.684895 42.717575 -2.013858 0.000000 0.000000 24.827585 -0.192958 0.067526 -0.263971 0.216498 0.513445 -1.180080 0.000000 0.000000 0.000000 -4.827552 1.415102 6.725238 0.876194 -0.130332 11.051437 0.000000 0.000000 0.000000 3.872160 -7.242390 1.603220 -70.653000 -14.666200 11.532700 -13.923300 -16.917601 0.872073 10.313600 2.870230 -0.996065 -0.717347 3.164561 -0.175255 70.157959 -11.486569 15.751900 20.032747 11.985042 0.215782 -7.271249 -1.859881 0.199794 -21.244499 6.928760 -0.215079 39.506100 -3.785390 -3.216180 11.468200 -3.529910 -2.594250 -1.331990 -1.040400 0.351713 -0.614498 2.349910 -0.869250 1.252760 -19.952499 0.613378 
-0.509772 42.830570 -2.247586 0.000000 0.000000 31.034481 -0.419437 0.028358 -0.418943 0.023629 0.402563 -1.457503 0.000000 0.000000 0.000000 -4.585482 1.810677 8.618122 1.120597 -0.168973 14.131455 0.000000 0.000000 0.000000 3.387212 -6.786857 2.049824 -71.016754 -16.567327 10.737995 -13.533550 -17.738327 0.846038 10.919250 2.464717 -1.222889 -0.265799 2.475349 -0.221036 70.159782 -11.766071 15.670804 19.295666 12.304095 0.236011 -7.576599 -2.384545 0.191231 -21.639721 7.168250 -0.042483 43.176414 -4.033240 -3.646417 14.624972 4.304132 -2.944339 -0.789487 -1.054124 0.345278 -1.259800 2.306395 -0.915196 1.455630 -24.554350 1.723914 
0.117179 42.837139 -2.387190 0.000000 0.000000 37.241379 -0.509384 0.037187 -0.554899 -0.101169 0.270636 -1.627260 0.000000 0.000000 0.000000 -4.325599 2.218540 10.514918 1.366574 -0.234084 17.200985 0.000000 0.000000 0.000000 2.470402 -5.876380 2.492998 -71.495979 -15.701748 10.190081 -14.194829 -17.871630 0.702267 11.205707 1.391171 -1.383819 0.292118 1.801720 -0.284381 70.144699 -11.878300 15.572400 18.502600 12.112600 0.257808 -7.814210 -2.860640 0.164405 -19.582973 6.465116 0.164305 42.484161 -4.223868 -3.657263 14.257099 15.033813 -2.507084 -0.341050 -1.541300 0.286137 -1.731990 2.248660 -0.970618 1.658500 -29.156200 2.834450 
0.963078 42.633911 -2.858124 0.000000 0.000000 43.448277 -0.276749 0.160750 -0.605038 0.019345 0.250455 -1.635066 0.000000 0.000000 0.000000 -4.042993 2.638212 12.385599 1.610788 -0.338389 20.202652 0.000000 0.000000 0.000000 1.396609 -4.674400 2.937529 -72.057381 -12.680827 9.838776 -15.572862 -17.513906 0.483364 11.256225 -0.162576 -1.476192 0.963201 1.156325 -0.365562 70.107391 -11.791282 15.456920 17.671309 11.295656 0.279197 -7.962424 -3.290795 0.115882 -14.892200 4.193210 0.239312 34.674400 -4.204550 -2.942880 8.191740 24.943199 -0.487309 -1.413490 -2.670970 0.166808 -0.127121 2.460090 -0.882258 2.965200 -32.438099 3.481690 
1.775119 42.192783 -3.882645 0.000000 0.000000 49.655174 0.059437 0.338880 -0.574820 0.189109 0.327394 -1.552915 0.000000 0.000000 0.000000 -3.732756 3.069215 14.200135 1.849903 -0.494610 23.079082 0.000000 0.000000 0.000000 0.440714 -3.344360 3.388208 -72.667686 -8.115937 9.633904 -17.333378 -16.861559 0.231936 11.143725 -2.008689 -1.497349 1.660131 0.535203 -0.444030 70.045113 -11.600660 15.344735 16.921680 10.023671 0.289401 -8.029000 -3.791364 0.053821 -8.391015 0.531718 0.097712 20.098831 -3.918906 -1.518644 -3.218292 30.740688 3.064699 -9.634840 -5.300720 0.127942 14.655400 3.905560 0.450972 1.426090 -34.652100 5.821160 
2.220777 41.786747 -4.870252 0.000000 0.000000 55.862072 0.178877 0.479686 -0.487771 0.118736 0.449972 -1.484370 0.000000 0.000000 0.000000 -3.389980 3.511070 15.928500 2.080580 -0.715471 25.772900 0.000000 0.000000 0.000000 -0.122402 -2.049704 3.849823 -73.293633 -2.618447 9.525287 -19.142113 -16.110992 -0.009412 10.930765 -3.959333 -1.444628 2.272067 -0.069761 -0.494031 69.955772 -11.433984 15.261259 16.399136 8.538374 0.275442 -8.029048 -4.507137 -0.010717 -4.925670 -1.118860 -0.020732 11.535600 -3.695920 -0.684775 -9.517600 30.832001 4.716790 -17.146200 -8.094600 0.697857 26.851801 4.243060 1.709160 5.013480 -33.824799 14.438400 
2.067247 41.680031 -5.195257 0.000000 0.000000 62.068970 0.459252 0.457321 -0.449765 0.013628 0.467761 -1.639260 0.000000 0.000000 0.000000 -3.015953 3.954602 17.530941 2.298902 -1.007179 28.215965 0.000000 0.000000 0.000000 -0.017858 -0.953875 4.327164 -73.901939 3.200268 9.462747 -20.664793 -15.458611 -0.198076 10.669815 -5.826673 -1.315370 2.688160 -0.666679 -0.489810 69.837303 -11.418800 15.231900 16.249100 7.081500 0.224343 -7.977680 -5.582900 -0.066673 -4.929953 -0.109765 -0.020595 11.186075 -3.629407 -0.687163 -8.740175 26.629650 3.751804 -22.619080 -9.734247 1.431296 35.608505 3.212063 2.307409 8.151237 -29.345623 22.781645 
1.560327 41.800751 -4.903994 0.000000 0.000000 68.275864 2.575380 0.180646 -0.672000 1.056430 0.185699 -2.283970 0.000000 0.000000 0.000000 -2.636739 4.355850 18.928806 2.498622 -1.349888 30.297108 0.000000 0.000000 0.000000 1.029226 -0.220316 4.825020 -74.459320 8.728841 9.396103 -21.567146 -15.100811 -0.291450 10.404928 -7.422873 -1.106912 2.840378 -1.254704 -0.414987 69.690804 -11.637098 15.274037 16.578156 5.852322 0.127069 -7.889738 -7.076626 -0.105521 -4.934235 0.899330 -0.020458 10.836550 -3.562895 -0.689550 -7.962750 22.427299 2.786818 -26.411800 -9.539480 1.701790 42.066399 0.462274 1.835770 8.996850 -21.934700 24.639601 
1.065462 41.992977 -4.210802 0.000000 0.000000 74.482758 3.847155 0.070087 -0.709673 1.537578 0.406332 -2.588739 0.000000 0.000000 0.000000 -2.284597 4.662158 20.033716 2.672914 -1.717235 31.894396 0.000000 0.000000 0.000000 3.293730 -0.012471 5.348180 -74.932503 13.355900 9.275180 -21.514900 -15.234000 -0.246929 10.184200 -8.560100 -0.816594 2.831931 -1.797136 -0.290676 69.530121 -11.988619 15.372912 17.337540 4.880267 -0.009641 -7.778975 -8.699030 -0.128877 -4.938518 1.908425 -0.020321 10.487024 -3.496382 -0.691937 -7.185325 18.224949 1.821831 -28.431705 -7.569861 1.167480 46.190948 -3.897207 0.223362 7.548452 -12.643196 17.579144 
0.948097 42.100803 -3.330017 0.000000 0.000000 80.689651 3.804680 0.170286 -0.525733 1.228110 1.051080 -2.441780 0.000000 0.000000 0.000000 -1.991790 4.820870 20.757299 2.814950 -2.082860 32.885899 0.000000 0.000000 0.000000 6.870723 -0.438669 5.888837 -75.270424 16.624851 9.092931 -20.341030 -15.954351 -0.041196 9.691504 -9.069893 -0.485332 2.808840 -2.248315 -0.147367 69.372299 -12.327547 15.505738 18.439651 4.152300 -0.175106 -7.658876 -10.074016 -0.140887 -4.942800 2.917520 -0.020185 10.137500 -3.429870 -0.694325 -6.407900 14.022600 0.856845 -27.962099 -6.346120 0.512838 47.621399 -6.959710 -1.017420 1.957570 -2.885590 10.576900 
1.421778 42.032707 -2.447870 0.000000 0.000000 86.896545 2.905335 0.389870 -0.242906 0.524175 1.734888 -2.019073 0.000000 0.000000 0.000000 -1.784329 4.793151 21.033392 2.918978 -2.423525 33.182011 0.000000 0.000000 0.000000 11.136026 -1.386788 6.388800 -75.350769 18.698191 9.014831 -18.547455 -16.957109 0.271914 9.198807 -8.861282 -0.328346 2.917125 -2.562580 -0.015550 69.234383 -12.508066 15.649728 19.796883 3.655384 -0.358643 -7.542928 -10.825485 -0.145699 -4.240485 2.507235 -0.055872 9.959780 -3.387315 -0.718187 -7.186775 9.920720 1.514612 -24.443905 -7.872724 0.377678 45.490150 -6.206979 -0.603628 -8.023870 5.849867 11.749160 
